<svg data-name="Layer 1" xmlns="http://www.w3.org/2000/svg" viewBox="0 0 1080 1080"><defs><linearGradient id="a" x1="336.73" y1="601.77" x2="341.35" y2="496.34" gradientUnits="userSpaceOnUse"><stop offset=".12" stop-color="#04c7e3"/><stop offset="1" stop-color="#b148fd"/></linearGradient></defs><path style="stroke-width:0;fill:url(#a);fill-rule:evenodd" d="M247.21 531.24v-35.06l91.07-52.58 91.07 52.58v35.06l-60.71 35.05 60.71 35.05v35.06l-91.07-52.58-91.07 52.58v-35.06L399 513.71l-60.72-35.05z"/><path d="M551.36 561.59a50.2 50.2 0 0 0 8.59-6.11c4.66-4.1 8.35-9.18 11.07-15.23 2.71-6.05 4.07-12.9 4.07-20.56 0-8.21-1.72-15.29-5.16-21.22q-5.16-8.91-15.06-13.65c-6.61-3.17-14.73-4.75-24.39-4.75h-46.44v119.86h23.63V568.3h17.82c1.68 0 3.34-.07 4.99-.22l23.14 31.85h26.64v-1.17zm-43.69-13.27v-48.11h22.48q9.315 0 15.06 4.83c3.83 3.22 5.75 8.32 5.75 15.32q0 7.155-2.67 13.56c-1.77 4.28-4.57 7.74-8.4 10.41q-5.745 3.99-14.4 3.99zm91.9-68.25h23.64v119.86h-23.64zm47.61 93.89h1.66c2.66 1.44 5.83 2.78 9.49 3.99 3.66 1.22 7.68 2.19 12.07 2.91 4.38.72 8.91 1.08 13.57 1.08 5.1 0 9.49-.42 13.15-1.25s6.49-2.22 8.49-4.16 3-4.58 3-7.91c0-4.11-1.28-7.1-3.83-8.99s-6.72-3.33-12.48-4.33l-12.65-2.16q-10.65-1.665-18.48-5.91c-5.22-2.83-9.24-6.66-12.07-11.49s-4.24-10.74-4.24-17.73c0-8.66 2.02-15.95 6.08-21.89 4.05-5.94 10.07-10.43 18.06-13.48s17.81-4.58 29.46-4.58c5.33 0 10.51.47 15.57 1.41 5.05.94 9.18 2.14 12.4 3.58v20.81h-1.5c-3.11-1.44-7.02-2.77-11.74-3.99q-7.08-1.83-16.23-1.83c-5.77 0-10.85.64-15.23 1.91-4.38 1.28-7.77 3.3-10.15 6.08-2.39 2.78-3.58 6.38-3.58 10.82 0 5.55 1.61 9.43 4.83 11.65s8.04 3.94 14.48 5.16l12.32 2c6.1 1 11.6 2.75 16.48 5.24 4.88 2.5 8.74 5.94 11.57 10.32 2.83 4.39 4.24 9.96 4.24 16.73 0 5.99-1.19 11.15-3.58 15.48s-5.74 7.85-10.07 10.57-9.41 4.72-15.23 5.99-12.18 1.91-19.06 1.91c-4.88 0-9.57-.31-14.07-.92s-8.71-1.39-12.65-2.33-7.3-1.97-10.07-3.08v-21.64Zm185.61 5.33v20.64h-79.74V480.07h78.07v20.64h-54.43v27.97h45.61v19.81h-45.61v30.8z" style="fill:#00002e;stroke-width:0"/></svg>
